<svg width="78" height="73" viewBox="0 0 78 73" fill="none" xmlns="http://www.w3.org/2000/svg">
<rect width="78" height="73" rx="12" fill="black"/>
<path d="M26.9989 43.834C26.87 45.1992 26.3661 46.2656 25.4872 47.0332C24.6083 47.7949 23.4394 48.1758 21.9804 48.1758C20.9609 48.1758 20.0614 47.9355 19.2822 47.4551C18.5087 46.9688 17.9111 46.2803 17.4892 45.3896C17.0673 44.499 16.8476 43.4648 16.83 42.2871V41.0918C16.83 39.8848 17.0439 38.8213 17.4716 37.9014C17.8993 36.9814 18.5116 36.2725 19.3085 35.7744C20.1113 35.2764 21.037 35.0273 22.0859 35.0273C23.498 35.0273 24.6347 35.4111 25.496 36.1787C26.3573 36.9463 26.8583 38.0303 26.9989 39.4307H24.7841C24.6786 38.5107 24.4091 37.8486 23.9755 37.4443C23.5478 37.0342 22.9179 36.8291 22.0859 36.8291C21.1191 36.8291 20.3749 37.1836 19.8534 37.8926C19.3378 38.5957 19.0741 39.6299 19.0624 40.9951V42.1289C19.0624 43.5117 19.3085 44.5664 19.8007 45.293C20.2988 46.0195 21.0253 46.3828 21.9804 46.3828C22.8534 46.3828 23.5097 46.1865 23.9491 45.7939C24.3886 45.4014 24.6669 44.748 24.7841 43.834H26.9989ZM33.4262 43.0693H30.9477V48H28.7241V35.2031H33.2241C34.7006 35.2031 35.8403 35.5342 36.643 36.1963C37.4457 36.8584 37.8471 37.8164 37.8471 39.0703C37.8471 39.9258 37.6391 40.6436 37.2231 41.2236C36.8129 41.7979 36.2387 42.2402 35.5004 42.5508L38.3745 47.8857V48H35.9926L33.4262 43.0693ZM30.9477 41.2852H33.2329C33.9829 41.2852 34.5688 41.0977 34.9907 40.7227C35.4125 40.3418 35.6235 39.8232 35.6235 39.167C35.6235 38.4814 35.4272 37.9512 35.0346 37.5762C34.6479 37.2012 34.0678 37.0078 33.2944 36.9961H30.9477V41.2852ZM49.8994 41.9355C49.8994 43.1895 49.6826 44.291 49.249 45.2402C48.8154 46.1836 48.1943 46.9102 47.3857 47.4199C46.583 47.9238 45.6572 48.1758 44.6084 48.1758C43.5713 48.1758 42.6455 47.9238 41.831 47.4199C41.0224 46.9102 40.3955 46.1865 39.9502 45.249C39.5107 44.3115 39.288 43.2305 39.2822 42.0059V41.2852C39.2822 40.0371 39.5019 38.9355 39.9414 37.9805C40.3867 37.0254 41.0107 36.2959 41.8134 35.792C42.622 35.2822 43.5478 35.0273 44.5908 35.0273C45.6338 35.0273 46.5566 35.2793 47.3593 35.7832C48.1679 36.2812 48.792 37.002 49.2314 37.9453C49.6709 38.8828 49.8935 39.9756 49.8994 41.2236V41.9355ZM47.6757 41.2676C47.6757 39.8496 47.4062 38.7627 46.8671 38.0068C46.3339 37.251 45.5752 36.873 44.5908 36.873C43.6298 36.873 42.8769 37.251 42.332 38.0068C41.7929 38.7568 41.5175 39.8203 41.5058 41.1973V41.9355C41.5058 43.3418 41.7783 44.4287 42.3232 45.1963C42.874 45.9639 43.6357 46.3477 44.6084 46.3477C45.5927 46.3477 46.3486 45.9727 46.8759 45.2227C47.4091 44.4727 47.6757 43.377 47.6757 41.9355V41.2676ZM58.5327 44.7041C58.5327 44.1416 58.3335 43.708 57.935 43.4033C57.5425 43.0986 56.8305 42.791 55.7993 42.4805C54.768 42.1699 53.9477 41.8242 53.3384 41.4434C52.1723 40.7109 51.5893 39.7559 51.5893 38.5781C51.5893 37.5469 52.0083 36.6973 52.8462 36.0293C53.6899 35.3613 54.7827 35.0273 56.1245 35.0273C57.0151 35.0273 57.8091 35.1914 58.5063 35.5195C59.2036 35.8477 59.7514 36.3164 60.1499 36.9258C60.5483 37.5293 60.7475 38.2002 60.7475 38.9385H58.5327C58.5327 38.2705 58.3218 37.749 57.8999 37.374C57.4839 36.9932 56.8862 36.8027 56.1069 36.8027C55.3804 36.8027 54.8149 36.958 54.4106 37.2686C54.0122 37.5791 53.813 38.0127 53.813 38.5693C53.813 39.0381 54.0298 39.4307 54.4634 39.7471C54.897 40.0576 55.6118 40.3623 56.6079 40.6611C57.604 40.9541 58.4038 41.291 59.0073 41.6719C59.6108 42.0469 60.0532 42.4805 60.3345 42.9727C60.6157 43.459 60.7563 44.0303 60.7563 44.6865C60.7563 45.7529 60.3462 46.6025 59.5259 47.2354C58.7114 47.8623 57.604 48.1758 56.2036 48.1758C55.2778 48.1758 54.4253 48.0059 53.646 47.666C52.8725 47.3203 52.269 46.8457 51.8354 46.2422C51.4077 45.6387 51.1938 44.9355 51.1938 44.1328H53.4175C53.4175 44.8594 53.6577 45.4219 54.1382 45.8203C54.6186 46.2188 55.3071 46.418 56.2036 46.418C56.977 46.418 57.5571 46.2627 57.9438 45.9521C58.3364 45.6357 58.5327 45.2197 58.5327 44.7041ZM69.126 44.7041C69.126 44.1416 68.9268 43.708 68.5283 43.4033C68.1357 43.0986 67.4238 42.791 66.3926 42.4805C65.3613 42.1699 64.541 41.8242 63.9316 41.4434C62.7656 40.7109 62.1826 39.7559 62.1826 38.5781C62.1826 37.5469 62.6016 36.6973 63.4395 36.0293C64.2832 35.3613 65.376 35.0273 66.7178 35.0273C67.6084 35.0273 68.4023 35.1914 69.0996 35.5195C69.7969 35.8477 70.3447 36.3164 70.7432 36.9258C71.1416 37.5293 71.3408 38.2002 71.3408 38.9385H69.126C69.126 38.2705 68.915 37.749 68.4932 37.374C68.0771 36.9932 67.4795 36.8027 66.7002 36.8027C65.9736 36.8027 65.4082 36.958 65.0039 37.2686C64.6055 37.5791 64.4062 38.0127 64.4062 38.5693C64.4062 39.0381 64.623 39.4307 65.0566 39.7471C65.4902 40.0576 66.2051 40.3623 67.2012 40.6611C68.1973 40.9541 68.9971 41.291 69.6006 41.6719C70.2041 42.0469 70.6465 42.4805 70.9277 42.9727C71.209 43.459 71.3496 44.0303 71.3496 44.6865C71.3496 45.7529 70.9395 46.6025 70.1191 47.2354C69.3047 47.8623 68.1973 48.1758 66.7969 48.1758C65.8711 48.1758 65.0186 48.0059 64.2393 47.666C63.4658 47.3203 62.8623 46.8457 62.4287 46.2422C62.001 45.6387 61.7871 44.9355 61.7871 44.1328H64.0107C64.0107 44.8594 64.251 45.4219 64.7314 45.8203C65.2119 46.2188 65.9004 46.418 66.7969 46.418C67.5703 46.418 68.1504 46.2627 68.5371 45.9521C68.9297 45.6357 69.126 45.2197 69.126 44.7041ZM57.9438 53.2031H60.1587V62.1768C60.1587 63.4014 59.7749 64.374 59.0073 65.0947C58.2456 65.8154 57.2378 66.1758 55.9839 66.1758C54.6479 66.1758 53.6167 65.8389 52.8901 65.165C52.1636 64.4912 51.8003 63.5537 51.8003 62.3525H54.0151C54.0151 63.0322 54.1821 63.5449 54.5161 63.8906C54.8559 64.2305 55.3452 64.4004 55.9839 64.4004C56.5815 64.4004 57.0561 64.2041 57.4077 63.8115C57.7651 63.4131 57.9438 62.8652 57.9438 62.168V53.2031ZM69.126 62.7041C69.126 62.1416 68.9268 61.708 68.5283 61.4033C68.1357 61.0986 67.4238 60.791 66.3926 60.4805C65.3613 60.1699 64.541 59.8242 63.9316 59.4434C62.7656 58.7109 62.1826 57.7559 62.1826 56.5781C62.1826 55.5469 62.6016 54.6973 63.4395 54.0293C64.2832 53.3613 65.376 53.0273 66.7178 53.0273C67.6084 53.0273 68.4023 53.1914 69.0996 53.5195C69.7969 53.8477 70.3447 54.3164 70.7432 54.9258C71.1416 55.5293 71.3408 56.2002 71.3408 56.9385H69.126C69.126 56.2705 68.915 55.749 68.4932 55.374C68.0771 54.9932 67.4795 54.8027 66.7002 54.8027C65.9736 54.8027 65.4082 54.958 65.0039 55.2686C64.6055 55.5791 64.4062 56.0127 64.4062 56.5693C64.4062 57.0381 64.623 57.4307 65.0566 57.7471C65.4902 58.0576 66.2051 58.3623 67.2012 58.6611C68.1973 58.9541 68.9971 59.291 69.6006 59.6719C70.2041 60.0469 70.6465 60.4805 70.9277 60.9727C71.209 61.459 71.3496 62.0303 71.3496 62.6865C71.3496 63.7529 70.9395 64.6025 70.1191 65.2354C69.3047 65.8623 68.1973 66.1758 66.7969 66.1758C65.8711 66.1758 65.0186 66.0059 64.2393 65.666C63.4658 65.3203 62.8623 64.8457 62.4287 64.2422C62.001 63.6387 61.7871 62.9355 61.7871 62.1328H64.0107C64.0107 62.8594 64.251 63.4219 64.7314 63.8203C65.2119 64.2188 65.9004 64.418 66.7969 64.418C67.5703 64.418 68.1504 64.2627 68.5371 63.9521C68.9297 63.6357 69.126 63.2197 69.126 62.7041Z" fill="white"/>
<path d="M12.5109 24V19.7344H13.7707C14.1477 19.7344 14.4816 19.8184 14.7727 19.9863C15.0656 20.1543 15.2922 20.3926 15.4523 20.7012C15.6125 21.0098 15.6926 21.3633 15.6926 21.7617V21.9756C15.6926 22.3799 15.6115 22.7354 15.4494 23.042C15.2893 23.3486 15.0598 23.585 14.7609 23.751C14.4641 23.917 14.1232 24 13.7385 24H12.5109ZM13.2521 20.332V23.4082H13.7355C14.1242 23.4082 14.4221 23.2871 14.6291 23.0449C14.8381 22.8008 14.9445 22.4512 14.9484 21.9961V21.7588C14.9484 21.2959 14.8479 20.9424 14.6467 20.6982C14.4455 20.4541 14.1535 20.332 13.7707 20.332H13.2521ZM18.834 22.0957H17.0821V23.4082H19.1299V24H16.3409V19.7344H19.1094V20.332H17.0821V21.5098H18.834V22.0957ZM23.0272 24H22.286L20.3846 20.9736V24H19.6434V19.7344H20.3846L22.2919 22.7725V19.7344H23.0272V24ZM24.5954 24H23.8571V19.7344H24.5954V24ZM27.6461 22.9014C27.6461 22.7139 27.5796 22.5693 27.4468 22.4678C27.316 22.3662 27.0787 22.2637 26.7349 22.1602C26.3912 22.0566 26.1177 21.9414 25.9146 21.8145C25.5259 21.5703 25.3316 21.252 25.3316 20.8594C25.3316 20.5156 25.4712 20.2324 25.7505 20.0098C26.0318 19.7871 26.3961 19.6758 26.8433 19.6758C27.1402 19.6758 27.4048 19.7305 27.6373 19.8398C27.8697 19.9492 28.0523 20.1055 28.1851 20.3086C28.3179 20.5098 28.3843 20.7334 28.3843 20.9795H27.6461C27.6461 20.7568 27.5757 20.583 27.4351 20.458C27.2964 20.3311 27.0972 20.2676 26.8375 20.2676C26.5953 20.2676 26.4068 20.3193 26.272 20.4229C26.1392 20.5264 26.0728 20.6709 26.0728 20.8564C26.0728 21.0127 26.1451 21.1436 26.2896 21.249C26.4341 21.3525 26.6724 21.4541 27.0045 21.5537C27.3365 21.6514 27.6031 21.7637 27.8043 21.8906C28.0054 22.0156 28.1529 22.1602 28.2466 22.3242C28.3404 22.4863 28.3873 22.6768 28.3873 22.8955C28.3873 23.251 28.2505 23.5342 27.9771 23.7451C27.7056 23.9541 27.3365 24.0586 26.8697 24.0586C26.5611 24.0586 26.2769 24.002 26.0171 23.8887C25.7593 23.7734 25.5582 23.6152 25.4136 23.4141C25.2711 23.2129 25.1998 22.9785 25.1998 22.7109H25.941C25.941 22.9531 26.0211 23.1406 26.1812 23.2734C26.3414 23.4062 26.5709 23.4727 26.8697 23.4727C27.1275 23.4727 27.3209 23.4209 27.4498 23.3174C27.5806 23.2119 27.6461 23.0732 27.6461 22.9014ZM31.8547 23.0713L32.9387 19.7344H33.7532L32.218 24H31.5002L29.9709 19.7344H30.7825L31.8547 23.0713ZM36.3116 23.0068H34.6593L34.3136 24H33.543L35.1544 19.7344H35.8194L37.4337 24H36.6602L36.3116 23.0068ZM34.8673 22.4092H36.1036L35.4854 20.6396L34.8673 22.4092ZM38.5712 23.4082H40.5077V24H37.83V19.7344H38.5712V23.4082ZM41.7273 23.4082H43.6638V24H40.9861V19.7344H41.7273V23.4082ZM46.5885 23.0068H44.9361L44.5904 24H43.8199L45.4313 19.7344H46.0963L47.7105 24H46.9371L46.5885 23.0068ZM45.1441 22.4092H46.3805L45.7623 20.6396L45.1441 22.4092ZM48.1069 24V19.7344H49.3666C49.7436 19.7344 50.0776 19.8184 50.3686 19.9863C50.6616 20.1543 50.8881 20.3926 51.0483 20.7012C51.2084 21.0098 51.2885 21.3633 51.2885 21.7617V21.9756C51.2885 22.3799 51.2075 22.7354 51.0453 23.042C50.8852 23.3486 50.6557 23.585 50.3569 23.751C50.06 23.917 49.7192 24 49.3344 24H48.1069ZM48.8481 20.332V23.4082H49.3315C49.7202 23.4082 50.018 23.2871 50.225 23.0449C50.434 22.8008 50.5405 22.4512 50.5444 21.9961V21.7588C50.5444 21.2959 50.4438 20.9424 50.2426 20.6982C50.0414 20.4541 49.7495 20.332 49.3666 20.332H48.8481ZM54.26 23.0068H52.6077L52.262 24H51.4915L53.1028 19.7344H53.7678L55.3821 24H54.6087L54.26 23.0068ZM52.8157 22.4092H54.052L53.4339 20.6396L52.8157 22.4092ZM57.3458 22.3564H56.5196V24H55.7784V19.7344H57.2784C57.7706 19.7344 58.1505 19.8447 58.4181 20.0654C58.6857 20.2861 58.8195 20.6055 58.8195 21.0234C58.8195 21.3086 58.7501 21.5479 58.6114 21.7412C58.4747 21.9326 58.2833 22.0801 58.0372 22.1836L58.9952 23.9619V24H58.2013L57.3458 22.3564ZM56.5196 21.7617H57.2814C57.5314 21.7617 57.7267 21.6992 57.8673 21.5742C58.0079 21.4473 58.0782 21.2744 58.0782 21.0557C58.0782 20.8271 58.0128 20.6504 57.882 20.5254C57.753 20.4004 57.5597 20.3359 57.3019 20.332H56.5196V21.7617ZM61.9257 22.0957H60.1738V23.4082H62.2216V24H59.4326V19.7344H62.2011V20.332H60.1738V21.5098H61.9257V22.0957ZM64.9646 22.9014C64.9646 22.7139 64.8982 22.5693 64.7654 22.4678C64.6346 22.3662 64.3973 22.2637 64.0535 22.1602C63.7098 22.0566 63.4363 21.9414 63.2332 21.8145C62.8445 21.5703 62.6502 21.252 62.6502 20.8594C62.6502 20.5156 62.7898 20.2324 63.0691 20.0098C63.3504 19.7871 63.7146 19.6758 64.1619 19.6758C64.4588 19.6758 64.7234 19.7305 64.9559 19.8398C65.1883 19.9492 65.3709 20.1055 65.5037 20.3086C65.6365 20.5098 65.7029 20.7334 65.7029 20.9795H64.9646C64.9646 20.7568 64.8943 20.583 64.7537 20.458C64.615 20.3311 64.4158 20.2676 64.1561 20.2676C63.9139 20.2676 63.7254 20.3193 63.5906 20.4229C63.4578 20.5264 63.3914 20.6709 63.3914 20.8564C63.3914 21.0127 63.4637 21.1436 63.6082 21.249C63.7527 21.3525 63.991 21.4541 64.323 21.5537C64.6551 21.6514 64.9217 21.7637 65.1229 21.8906C65.324 22.0156 65.4715 22.1602 65.5652 22.3242C65.659 22.4863 65.7059 22.6768 65.7059 22.8955C65.7059 23.251 65.5691 23.5342 65.2957 23.7451C65.0242 23.9541 64.6551 24.0586 64.1883 24.0586C63.8797 24.0586 63.5955 24.002 63.3357 23.8887C63.0779 23.7734 62.8768 23.6152 62.7322 23.4141C62.5896 23.2129 62.5184 22.9785 62.5184 22.7109H63.2596C63.2596 22.9531 63.3396 23.1406 63.4998 23.2734C63.66 23.4062 63.8895 23.4727 64.1883 23.4727C64.4461 23.4727 64.6395 23.4209 64.7684 23.3174C64.8992 23.2119 64.9646 23.0732 64.9646 22.9014Z" fill="white" fill-opacity="0.4"/>
</svg>
